<svg version="1.0" xmlns="http://www.w3.org/2000/svg"
 width="512.000000pt" height="512.000000pt" viewBox="0 0 512.000000 512.000000"
 preserveAspectRatio="xMidYMid meet">

<g transform="translate(0.000000,512.000000) scale(0.100000,-0.100000)"
fill="currentColor" stroke="none">
<path d="M2497 5107 c-15 -7 -572 -534 -1237 -1172 -895 -857 -1216 -1171
-1231 -1202 -65 -134 -7 -297 125 -359 49 -23 61 -24 269 -24 l217 0 0 -987
c0 -805 3 -998 14 -1039 41 -155 171 -280 324 -313 75 -16 3089 -16 3164 0
157 34 294 170 327 327 8 37 11 354 11 1032 l0 980 218 0 c207 0 219 1 268 24
137 64 192 231 119 364 -20 38 -319 329 -1231 1203 -662 635 -1216 1159 -1231
1166 -16 7 -44 12 -63 12 -19 0 -47 -5 -63 -12z"/>
</g>
</svg>
