<svg version="1.0" xmlns="http://www.w3.org/2000/svg"
 width="28" height="28" viewBox="0 0 512.000000 512.000000"
 preserveAspectRatio="xMidYMid meet">

<g transform="translate(0.000000,512.000000) scale(0.100000,-0.100000)"
fill="currentColor" stroke="none">
<path d="M2870 4784 c-260 -56 -450 -293 -450 -560 1 -200 91 -373 253 -481
104 -70 196 -98 322 -98 126 0 218 28 322 97 85 58 140 118 188 209 46 88 65
166 65 269 0 160 -57 297 -170 410 -140 139 -335 196 -530 154z"/>
<path d="M2380 3325 c-220 -32 -415 -81 -618 -158 -88 -33 -138 -57 -148 -72
-18 -27 -66 -265 -62 -306 2 -21 13 -39 31 -53 27 -20 28 -20 95 -2 201 56
331 68 417 38 105 -36 121 -125 61 -343 -19 -68 -64 -223 -99 -344 -178 -606
-240 -944 -217 -1183 23 -245 104 -357 345 -477 229 -114 456 -130 764 -55
208 52 505 161 526 194 7 12 32 85 55 163 39 136 41 143 25 172 -19 38 -55 48
-109 32 -23 -6 -75 -21 -116 -33 -103 -29 -312 -32 -353 -5 -53 34 -67 72 -67
179 0 200 66 483 240 1023 82 256 110 398 110 561 0 217 -49 360 -167 485
-116 122 -284 187 -508 194 -63 3 -151 -2 -205 -10z"/>
</g>
</svg>
